<svg width="1152" height="1152" viewBox="0 0 1152 1152" fill="none" xmlns="http://www.w3.org/2000/svg">
<rect width="1152" height="1152" fill="#0066FF"/>
<path d="M572.831 274.669C474.227 274.669 394 354.896 394 453.5C394 552.104 474.227 632.331 572.831 632.331C671.435 632.331 751.662 552.104 751.662 453.5C751.662 354.896 671.435 274.669 572.831 274.669Z" fill="white"/>
<path d="M552.961 385.94C559.545 385.94 564.883 375.265 564.883 362.096C564.883 348.928 559.545 338.252 552.961 338.252C546.376 338.252 541.039 348.928 541.039 362.096C541.039 375.265 546.376 385.94 552.961 385.94Z" fill="#0066FF"/>
<path d="M584.753 385.94C591.337 385.94 596.675 375.265 596.675 362.096C596.675 348.927 591.337 338.252 584.753 338.252C578.168 338.252 572.831 348.927 572.831 362.096C572.831 375.265 578.168 385.94 584.753 385.94Z" fill="#0066FF"/>
<path d="M492.421 404.753C470.173 404.753 452.072 422.854 452.072 445.102C452.072 467.351 470.173 485.452 492.421 485.452C514.669 485.452 532.77 467.351 532.77 445.102C532.77 422.854 514.669 404.753 492.421 404.753Z" fill="white"/>
<path d="M492.493 392.65C463.562 392.65 440.036 416.186 440.036 445.107C440.036 474.028 463.572 497.564 492.493 497.564C521.414 497.564 544.95 474.028 544.95 445.107C544.95 416.186 521.414 392.65 492.493 392.65ZM492.493 485.466C470.245 485.466 452.144 467.365 452.144 445.117C452.144 422.869 470.245 404.768 492.493 404.768C514.741 404.768 532.842 422.869 532.842 445.117C532.842 467.365 514.741 485.466 492.493 485.466Z" fill="#0066FF"/>
<path d="M705.543 298.512C676.618 298.512 653.086 322.046 653.086 350.974C653.086 379.902 676.618 403.426 705.543 403.426C734.468 403.426 758 379.892 758 350.974C758 322.056 734.468 298.512 705.543 298.512ZM705.543 391.32C683.299 391.32 665.202 373.221 665.202 350.974C665.202 328.728 683.299 310.629 705.543 310.629C727.787 310.629 745.884 328.728 745.884 350.974C745.884 373.221 727.787 391.32 705.543 391.32Z" fill="#0066FF"/>
<path d="M705.494 310.633C683.25 310.633 665.153 328.732 665.153 350.979C665.153 373.225 683.25 391.324 705.494 391.324C727.738 391.324 745.836 373.225 745.836 350.979C745.836 328.732 727.738 310.633 705.494 310.633Z" fill="white"/>
<path d="M331.449 836.331L299.924 726.071H324.9L343.48 803.131H344.393L364.648 726.071H386.122L406.377 803.284H407.29L425.87 726.071H450.846L419.321 836.331H396.934L375.918 763.535H375.004L353.836 836.331H331.449ZM449.95 813.183C449.95 794.755 464.875 788.663 480.714 787.75C486.653 787.369 497.77 786.836 501.273 786.684V779.983C501.121 773.13 496.4 769.018 488.024 769.018C480.409 769.018 475.536 772.52 474.317 778.155H452.844C454.215 763.84 466.703 752.57 488.633 752.57C506.603 752.57 523.66 760.642 523.66 780.592V836.331H502.339V824.909H501.73C497.618 832.524 489.851 837.854 477.515 837.854C461.677 837.854 449.95 829.63 449.95 813.183ZM471.576 812.573C471.576 818.97 476.754 822.32 483.912 822.32C494.115 822.32 501.425 815.467 501.273 806.786V800.695C497.846 800.847 488.252 801.38 484.369 801.761C476.602 802.522 471.576 806.177 471.576 812.573ZM578.808 869.074C555.964 869.074 541.953 858.87 540.583 843.184H562.818C564.036 849.733 570.28 852.779 579.265 852.779C589.773 852.779 596.779 848.362 596.779 836.788V821.711H595.713C592.667 828.412 585.357 835.113 572.107 835.113C553.375 835.113 538.451 822.016 538.451 794.451C538.451 766.429 553.832 752.57 572.107 752.57C585.966 752.57 592.667 760.794 595.713 767.495H596.627V753.636H619.014V837.245C619.014 858.261 602.261 869.074 578.808 869.074ZM579.113 818.208C590.383 818.208 596.779 809.375 596.779 794.755C596.779 779.983 590.383 770.541 579.113 770.541C567.691 770.541 561.599 780.44 561.599 794.755C561.599 809.071 567.691 818.208 579.113 818.208ZM674.466 869.074C651.622 869.074 637.611 858.87 636.241 843.184H658.476C659.694 849.733 665.938 852.779 674.923 852.779C685.431 852.779 692.437 848.362 692.437 836.788V821.711H691.371C688.325 828.412 681.015 835.113 667.765 835.113C649.033 835.113 634.109 822.016 634.109 794.451C634.109 766.429 649.49 752.57 667.765 752.57C681.624 752.57 688.325 760.794 691.371 767.495H692.285V753.636H714.672V837.245C714.672 858.261 697.919 869.074 674.466 869.074ZM674.771 818.208C686.041 818.208 692.437 809.375 692.437 794.755C692.437 779.983 686.041 770.541 674.771 770.541C663.349 770.541 657.257 780.44 657.257 794.755C657.257 809.071 663.349 818.208 674.771 818.208ZM755.504 726.071V836.331H732.965V726.071H755.504ZM811.262 838.006C785.981 838.006 770.447 821.559 770.447 795.364C770.447 769.779 786.133 752.57 810.348 752.57C832.126 752.57 849.182 766.276 849.182 794.451V800.847H792.682C792.682 813.335 800.144 821.102 811.718 821.102C819.333 821.102 824.816 817.751 827.1 812.726H848.573C845.375 827.955 831.669 838.006 811.262 838.006ZM792.682 786.684H827.861C827.861 776.632 820.856 769.475 810.805 769.475C800.449 769.475 793.063 777.165 792.682 786.684Z" fill="white"/>
</svg>
